<?xml version="1.0" encoding="utf-8"?>
<!-- Generator: Adobe Illustrator 26.2.1, SVG Export Plug-In . SVG Version: 6.00 Build 0)  -->
<svg version="1.1" id="Layer_1" xmlns="http://www.w3.org/2000/svg" xmlns:xlink="http://www.w3.org/1999/xlink" x="0px" y="0px"
	 viewBox="0 0 685.88 184.39" style="enable-background:new 0 0 685.88 184.39;" xml:space="preserve">
<style type="text/css">
	.st0{fill:#F2F2F2;}
	.st1{fill:url(#SVGID_1_);}
	.st2{fill:url(#SVGID_00000158013186196495425320000007736362080075669378_);}
	.st3{fill:url(#SVGID_00000153676392178647330960000005288656384317959085_);}
	.st4{fill:url(#SVGID_00000085946207618519845870000012117196786205277581_);}
	.st5{fill:url(#SVGID_00000080177553885279858500000006829497634870748845_);}
	.st6{fill:url(#SVGID_00000124143712174083913720000017656309560689314966_);}
	.st7{fill:url(#SVGID_00000150820533144885696840000006587011726844279439_);}
	.st8{fill:url(#SVGID_00000145737194997163203290000012699155383469439887_);}
	.st9{fill:url(#SVGID_00000110428267106978709210000007286464553366965908_);}
	.st10{fill:url(#SVGID_00000038393042908904644710000002187850702409395880_);}
	.st11{fill:url(#SVGID_00000056416793809899410630000016815726321734834868_);}
	.st12{fill:url(#SVGID_00000018211380024552371480000014833069076076620184_);}
	.st13{fill:url(#SVGID_00000049204348374670724010000004497781658939137153_);}
	.st14{fill:url(#SVGID_00000044878176690399192590000003822927232791873445_);}
	.st15{fill:url(#SVGID_00000075146989530839524960000007090806541522261148_);}
	.st16{fill:url(#SVGID_00000032624283221788829700000015548687466221517735_);}
	.st17{fill:url(#SVGID_00000142867937629130000390000001016887081499006636_);}
	.st18{fill:url(#SVGID_00000095303540738568498410000005898282675031196576_);}
	.st19{fill:url(#SVGID_00000080197497187586099080000013386647220801284506_);}
	.st20{fill:url(#SVGID_00000118359635497681860680000003781338572014422933_);}
	.st21{fill:url(#SVGID_00000139274220147054317530000014324381935118493083_);}
	.st22{fill:url(#SVGID_00000085958200969314947550000015791974421508361627_);}
	.st23{fill:url(#SVGID_00000120533760321212827130000004838499362956062856_);}
	.st24{fill:url(#SVGID_00000070080121720323715580000014200220952147804830_);}
	.st25{fill:url(#SVGID_00000100373847991904516680000005350669957647153320_);}
	.st26{fill:url(#SVGID_00000166658252645660775610000009347571545747267997_);}
	.st27{fill:url(#SVGID_00000047765118853442101050000006823155118803813783_);}
	.st28{fill:url(#SVGID_00000008867851615555129700000003604056540210846092_);}
	.st29{fill:url(#SVGID_00000098221441347090904710000009293181048814299574_);}
	.st30{fill:url(#SVGID_00000111163354048564909140000017542497193016139400_);}
	.st31{fill:url(#SVGID_00000009552871611897270890000010740027141594727316_);}
	.st32{fill:url(#SVGID_00000173128113114397314050000016103581560694662570_);}
	.st33{fill:url(#SVGID_00000050631692680105320860000011978361532784852380_);}
	.st34{fill:url(#SVGID_00000143585198465974276170000007728090775379890319_);}
	.st35{fill:url(#SVGID_00000046321473529876528770000001537908831109870773_);}
	.st36{fill:url(#SVGID_00000007428500823348833290000002990850874812646831_);}
	.st37{fill:url(#SVGID_00000142860290037798291260000010222973355949513398_);}
	.st38{fill:url(#SVGID_00000129201972017158887750000001561988851434590392_);}
	.st39{fill:url(#SVGID_00000167373759950501765570000014697897812017937288_);}
	.st40{fill:url(#SVGID_00000103972159237536099180000010275334097795120554_);}
	.st41{fill:url(#SVGID_00000097480531639966968980000001829626577237957032_);}
	.st42{fill:url(#SVGID_00000059271369891314583120000015283352038844851074_);}
	.st43{fill:url(#SVGID_00000042004713813927378760000017854214945382886837_);}
</style>
<g>
	<rect x="-1.13" class="st0" width="687.01" height="188.09"/>
	<g>
		<polygon points="685.88,166.28 685.88,110.15 622.41,147.93 		"/>
		
			<linearGradient id="SVGID_1_" gradientUnits="userSpaceOnUse" x1="1278.1624" y1="-260.4777" x2="1279.533" y2="-259.1071" gradientTransform="matrix(166 0 0 98 -211577.7812 25622.2188)">
			<stop  offset="0" style="stop-color:#051F76"/>
			<stop  offset="1" style="stop-color:#0A1E70"/>
		</linearGradient>
		<polygon class="st1" points="685.88,166.28 685.88,110.15 622.41,147.93 		"/>
		<polygon points="622.41,147.93 636.23,188.09 685.88,188.09 685.88,166.28 		"/>
		
			<linearGradient id="SVGID_00000000223695597642441450000012247450223484489885_" gradientUnits="userSpaceOnUse" x1="1278.3053" y1="-259.4347" x2="1279.6763" y2="-258.0637" gradientTransform="matrix(166 0 0 122 -211577.7812 31798.707)">
			<stop  offset="0" style="stop-color:#4767B4"/>
			<stop  offset="1" style="stop-color:#8190BB"/>
		</linearGradient>
		<polygon style="fill:url(#SVGID_00000000223695597642441450000012247450223484489885_);" points="622.41,147.93 636.23,188.09 
			685.88,188.09 685.88,166.28 		"/>
		<polygon points="310.69,0 255.62,0 225.65,51.82 		"/>
		
			<linearGradient id="SVGID_00000005970168401295909120000012287114868215655566_" gradientUnits="userSpaceOnUse" x1="1259.7018" y1="-261.8701" x2="1261.0754" y2="-260.4964" gradientTransform="matrix(64 0 0 83 -80407.4609 21690.1621)">
			<stop  offset="0" style="stop-color:#001756"/>
			<stop  offset="1" style="stop-color:#00144D"/>
		</linearGradient>
		<polygon style="fill:url(#SVGID_00000005970168401295909120000012287114868215655566_);" points="310.69,0 255.62,0 225.65,51.82 
					"/>
		<polygon points="129.55,50.45 206.43,172.64 225.65,51.82 		"/>
		
			<linearGradient id="SVGID_00000121980866497595772770000001318601016223865016_" gradientUnits="userSpaceOnUse" x1="1262.2695" y1="-261.5441" x2="1263.6417" y2="-260.1719" gradientTransform="matrix(70 0 0 89 -88210.3672 23303.7852)">
			<stop  offset="0" style="stop-color:#1B307B"/>
			<stop  offset="1" style="stop-color:#061C63"/>
		</linearGradient>
		<polygon style="fill:url(#SVGID_00000121980866497595772770000001318601016223865016_);" points="129.55,50.45 206.43,172.64 
			225.65,51.82 		"/>
		<polygon points="206.43,172.64 266.83,180.87 225.65,51.82 		"/>
		
			<linearGradient id="SVGID_00000183965194239333653160000012624430934074355121_" gradientUnits="userSpaceOnUse" x1="1246.4199" y1="-260.7324" x2="1247.7922" y2="-259.3599" gradientTransform="matrix(44 0 0 94 -54645.1289 24581.1367)">
			<stop  offset="0" style="stop-color:#001866"/>
			<stop  offset="1" style="stop-color:#253B82"/>
		</linearGradient>
		<polygon style="fill:url(#SVGID_00000183965194239333653160000012624430934074355121_);" points="206.43,172.64 266.83,180.87 
			225.65,51.82 		"/>
		<polygon points="266.83,180.87 313.07,0 310.69,0 225.65,51.82 		"/>
		
			<linearGradient id="SVGID_00000182516053346467927720000014158152110088613806_" gradientUnits="userSpaceOnUse" x1="1260.0474" y1="-259.5508" x2="1261.4205" y2="-258.1778" gradientTransform="matrix(64 0 0 133 -80407.4609 34497.6836)">
			<stop  offset="0" style="stop-color:#061B5E"/>
			<stop  offset="1" style="stop-color:#172F75"/>
		</linearGradient>
		<polygon style="fill:url(#SVGID_00000182516053346467927720000014158152110088613806_);" points="266.83,180.87 313.07,0 
			310.69,0 225.65,51.82 		"/>
		<polygon points="266.83,180.87 273.56,188.09 442.57,188.09 449.42,167.15 		"/>
		
			<linearGradient id="SVGID_00000078763019400109894880000009814242059735163059_" gradientUnits="userSpaceOnUse" x1="1275.2905" y1="-260.0289" x2="1276.6633" y2="-258.6561" gradientTransform="matrix(133 0 0 113 -169305.8281 29515.2734)">
			<stop  offset="0" style="stop-color:#696187"/>
			<stop  offset="1" style="stop-color:#37458B"/>
		</linearGradient>
		<polygon style="fill:url(#SVGID_00000078763019400109894880000009814242059735163059_);" points="266.83,180.87 273.56,188.09 
			442.57,188.09 449.42,167.15 		"/>
		<polygon points="442.57,188.09 493.22,188.09 449.42,167.15 		"/>
		
			<linearGradient id="SVGID_00000045599068695738817810000013778743205559462548_" gradientUnits="userSpaceOnUse" x1="1275.0116" y1="-259.8888" x2="1276.3834" y2="-258.517" gradientTransform="matrix(129 0 0 113 -164054.5625 29515.2734)">
			<stop  offset="0" style="stop-color:#52629A"/>
			<stop  offset="1" style="stop-color:#2A46A3"/>
		</linearGradient>
		<polygon style="fill:url(#SVGID_00000045599068695738817810000013778743205559462548_);" points="442.57,188.09 493.22,188.09 
			449.42,167.15 		"/>
		<polygon points="449.42,167.15 493.22,188.09 520.35,188.09 465.9,149.3 		"/>
		
			<linearGradient id="SVGID_00000130619342199890660430000011709415408544594869_" gradientUnits="userSpaceOnUse" x1="1269.33" y1="-264.1304" x2="1270.7029" y2="-262.7575" gradientTransform="matrix(92 0 0 57 -116331.3359 15207.0703)">
			<stop  offset="0" style="stop-color:#001655"/>
			<stop  offset="1" style="stop-color:#0C2A83"/>
		</linearGradient>
		<polygon style="fill:url(#SVGID_00000130619342199890660430000011709415408544594869_);" points="449.42,167.15 493.22,188.09 
			520.35,188.09 465.9,149.3 		"/>
		<polygon points="465.9,149.3 520.35,188.09 580.41,188.09 585.33,146.56 		"/>
		
			<linearGradient id="SVGID_00000041268449704859974780000011607319302847146386_" gradientUnits="userSpaceOnUse" x1="1268.6167" y1="-264.202" x2="1269.9896" y2="-262.829" gradientTransform="matrix(87 0 0 59 -109875.25 15715.6104)">
			<stop  offset="0" style="stop-color:#001657"/>
			<stop  offset="1" style="stop-color:#1C398E"/>
		</linearGradient>
		<polygon style="fill:url(#SVGID_00000041268449704859974780000011607319302847146386_);" points="465.9,149.3 520.35,188.09 
			580.41,188.09 585.33,146.56 		"/>
		<polygon points="585.33,146.56 580.41,188.09 598.86,188.09 622.41,147.93 		"/>
		
			<linearGradient id="SVGID_00000069363296964794520960000014575906706065352339_" gradientUnits="userSpaceOnUse" x1="1237.3696" y1="-264.0713" x2="1238.7432" y2="-262.6978" gradientTransform="matrix(34 0 0 59 -41487.9531 15715.6104)">
			<stop  offset="0" style="stop-color:#032176"/>
			<stop  offset="1" style="stop-color:#233B96"/>
		</linearGradient>
		<polygon style="fill:url(#SVGID_00000069363296964794520960000014575906706065352339_);" points="585.33,146.56 580.41,188.09 
			598.86,188.09 622.41,147.93 		"/>
		<polygon points="598.86,188.09 636.23,188.09 622.41,147.93 		"/>
		
			<linearGradient id="SVGID_00000040561659927358496530000002865704799707368846_" gradientUnits="userSpaceOnUse" x1="1265.861" y1="-259.5768" x2="1267.2329" y2="-258.2048" gradientTransform="matrix(76 0 0 122 -95618.2656 31798.707)">
			<stop  offset="0" style="stop-color:#4462AA"/>
			<stop  offset="1" style="stop-color:#F2DADD"/>
		</linearGradient>
		<polygon style="fill:url(#SVGID_00000040561659927358496530000002865704799707368846_);" points="598.86,188.09 636.23,188.09 
			622.41,147.93 		"/>
		<polygon points="465.9,149.3 585.33,146.56 454.92,64.18 		"/>
		
			<linearGradient id="SVGID_00000034811202732901589120000005382277318649772420_" gradientUnits="userSpaceOnUse" x1="1269.683" y1="-263.5232" x2="1271.0557" y2="-262.1505" gradientTransform="matrix(95 0 0 62 -120193.7812 16421.4219)">
			<stop  offset="0" style="stop-color:#00195B"/>
			<stop  offset="1" style="stop-color:#011C6D"/>
		</linearGradient>
		<polygon style="fill:url(#SVGID_00000034811202732901589120000005382277318649772420_);" points="465.9,149.3 585.33,146.56 
			454.92,64.18 		"/>
		<polygon points="449.42,149.3 315.05,0 313.07,0 266.83,180.87 		"/>
		
			<linearGradient id="SVGID_00000026128250107156694540000000295077933395937667_" gradientUnits="userSpaceOnUse" x1="1274.733" y1="-259.1319" x2="1276.1057" y2="-257.759" gradientTransform="matrix(133 0 0 133 -169305.8281 34497.6836)">
			<stop  offset="0" style="stop-color:#1E3E83"/>
			<stop  offset="1" style="stop-color:#00134C"/>
		</linearGradient>
		<polygon style="fill:url(#SVGID_00000026128250107156694540000000295077933395937667_);" points="449.42,149.3 315.05,0 313.07,0 
			266.83,180.87 		"/>
		<polygon points="266.83,180.87 449.42,167.15 449.42,149.3 		"/>
		
			<linearGradient id="SVGID_00000133512066801096526360000008650815345476860313_" gradientUnits="userSpaceOnUse" x1="1274.9893" y1="-277.3258" x2="1276.3632" y2="-275.9519" gradientTransform="matrix(133 0 0 23 -169305.8281 6527.9512)">
			<stop  offset="0" style="stop-color:#26418C"/>
			<stop  offset="1" style="stop-color:#001454"/>
		</linearGradient>
		<polygon style="fill:url(#SVGID_00000133512066801096526360000008650815345476860313_);" points="266.83,180.87 449.42,167.15 
			449.42,149.3 		"/>
		<polygon points="454.92,64.18 317.19,0 315.05,0 449.42,149.3 		"/>
		
			<linearGradient id="SVGID_00000057137028088725424330000010321077142082411963_" gradientUnits="userSpaceOnUse" x1="1271.261" y1="-260.4313" x2="1272.6345" y2="-259.0578" gradientTransform="matrix(103 0 0 110 -130607.3203 28626.4629)">
			<stop  offset="0" style="stop-color:#00144D"/>
			<stop  offset="1" style="stop-color:#001555"/>
		</linearGradient>
		<polygon style="fill:url(#SVGID_00000057137028088725424330000010321077142082411963_);" points="454.92,64.18 317.19,0 315.05,0 
			449.42,149.3 		"/>
		<polygon points="449.42,167.15 465.9,149.3 449.42,149.3 		"/>
		
			<linearGradient id="SVGID_00000112595643537303141450000005819793605040551092_" gradientUnits="userSpaceOnUse" x1="1139.6227" y1="-294.2979" x2="1140.9957" y2="-292.9248" gradientTransform="matrix(12 0 0 13 -13225.9824 3975.2461)">
			<stop  offset="0" style="stop-color:#001454"/>
			<stop  offset="1" style="stop-color:#001450"/>
		</linearGradient>
		<polygon style="fill:url(#SVGID_00000112595643537303141450000005819793605040551092_);" points="449.42,167.15 465.9,149.3 
			449.42,149.3 		"/>
		<polygon points="449.42,149.3 465.9,149.3 454.92,64.18 		"/>
		
			<linearGradient id="SVGID_00000132801781840631176740000014380434226131011228_" gradientUnits="userSpaceOnUse" x1="1139.3901" y1="-263.5959" x2="1140.7626" y2="-262.2234" gradientTransform="matrix(12 0 0 62 -13225.9824 16421.4219)">
			<stop  offset="0" style="stop-color:#001757"/>
			<stop  offset="1" style="stop-color:#001450"/>
		</linearGradient>
		<polygon style="fill:url(#SVGID_00000132801781840631176740000014380434226131011228_);" points="449.42,149.3 465.9,149.3 
			454.92,64.18 		"/>
		<polygon points="206.43,172.64 203.55,188.09 256.69,188.09 266.83,180.87 		"/>
		
			<linearGradient id="SVGID_00000028299786831230438950000012630192142141788039_" gradientUnits="userSpaceOnUse" x1="1253.3103" y1="-267.1633" x2="1254.6825" y2="-265.7911" gradientTransform="matrix(52 0 0 43 -64963.7266 11650.3574)">
			<stop  offset="0" style="stop-color:#061753"/>
			<stop  offset="1" style="stop-color:#836E8F"/>
		</linearGradient>
		<polygon style="fill:url(#SVGID_00000028299786831230438950000012630192142141788039_);" points="206.43,172.64 203.55,188.09 
			256.69,188.09 266.83,180.87 		"/>
		<polygon points="256.69,188.09 273.56,188.09 266.83,180.87 		"/>
		
			<linearGradient id="SVGID_00000043424010723782802750000006374456539948267410_" gradientUnits="userSpaceOnUse" x1="1276.4661" y1="-260.3141" x2="1277.8334" y2="-258.9468" gradientTransform="matrix(148 0 0 103 -188690.0781 26972.5703)">
			<stop  offset="0" style="stop-color:#FBD6A9"/>
			<stop  offset="1" style="stop-color:#D3BE98"/>
		</linearGradient>
		<polygon style="fill:url(#SVGID_00000043424010723782802750000006374456539948267410_);" points="256.69,188.09 273.56,188.09 
			266.83,180.87 		"/>
		<polygon points="225.65,51.82 200.93,0 137.96,0 129.55,50.45 		"/>
		
			<linearGradient id="SVGID_00000129893687200054720820000017283295456231723962_" gradientUnits="userSpaceOnUse" x1="1261.6912" y1="-260.2301" x2="1263.064" y2="-258.8571" gradientTransform="matrix(70 0 0 109 -88210.3672 28301.1914)">
			<stop  offset="0" style="stop-color:#11276E"/>
			<stop  offset="1" style="stop-color:#081E5D"/>
		</linearGradient>
		<polygon style="fill:url(#SVGID_00000129893687200054720820000017283295456231723962_);" points="225.65,51.82 200.93,0 137.96,0 
			129.55,50.45 		"/>
		<polygon points="255.62,0 200.93,0 225.65,51.82 		"/>
		
			<linearGradient id="SVGID_00000036247205946732535420000016495314817349599888_" gradientUnits="userSpaceOnUse" x1="1269.9778" y1="-260.4035" x2="1271.3484" y2="-259.0329" gradientTransform="matrix(100 0 0 109 -126856.8672 28301.1914)">
			<stop  offset="0" style="stop-color:#001650"/>
			<stop  offset="1" style="stop-color:#001450"/>
		</linearGradient>
		<polygon style="fill:url(#SVGID_00000036247205946732535420000016495314817349599888_);" points="255.62,0 200.93,0 225.65,51.82 
					"/>
		<polygon points="137.96,0 112.03,0 129.55,50.45 		"/>
		
			<linearGradient id="SVGID_00000064341653110525034590000008063143981678421681_" gradientUnits="userSpaceOnUse" x1="1244.8276" y1="-260.4619" x2="1246.2013" y2="-259.0883" gradientTransform="matrix(43 0 0 108 -53437.3125 28045.9219)">
			<stop  offset="0" style="stop-color:#172C75"/>
			<stop  offset="1" style="stop-color:#0E2467"/>
		</linearGradient>
		<polygon style="fill:url(#SVGID_00000064341653110525034590000008063143981678421681_);" points="137.96,0 112.03,0 129.55,50.45 
					"/>
		<polygon points="-1.13,98.92 -1.13,148.84 19.72,97.13 		"/>
		
			<linearGradient id="SVGID_00000138545178459432896710000009619859009133452731_" gradientUnits="userSpaceOnUse" x1="1268.4701" y1="-260.1645" x2="1269.8397" y2="-258.7948" gradientTransform="matrix(93 0 0 119 -118026.1484 30995.8965)">
			<stop  offset="0" style="stop-color:#2A3D7F"/>
			<stop  offset="1" style="stop-color:#7E6692"/>
		</linearGradient>
		<polygon style="fill:url(#SVGID_00000138545178459432896710000009619859009133452731_);" points="-1.13,98.92 -1.13,148.84 
			19.72,97.13 		"/>
		<polygon points="-1.13,75.18 -1.13,98.92 19.72,97.13 		"/>
		
			<linearGradient id="SVGID_00000032643682580761221030000006032030534101463726_" gradientUnits="userSpaceOnUse" x1="1268.2091" y1="-274.4219" x2="1269.5822" y2="-273.0488" gradientTransform="matrix(93 0 0 28 -118026.1484 7746.3037)">
			<stop  offset="0" style="stop-color:#041745"/>
			<stop  offset="1" style="stop-color:#0B1A4C"/>
		</linearGradient>
		<polygon style="fill:url(#SVGID_00000032643682580761221030000006032030534101463726_);" points="-1.13,75.18 -1.13,98.92 
			19.72,97.13 		"/>
		<polygon points="-1.13,65.3 -1.13,75.18 19.72,97.13 		"/>
		
			<linearGradient id="SVGID_00000144331366064339623090000016895380279718529968_" gradientUnits="userSpaceOnUse" x1="1187.9912" y1="-273.5384" x2="1189.3636" y2="-272.166" gradientTransform="matrix(19 0 0 29 -22579.6992 7992.5742)">
			<stop  offset="0" style="stop-color:#071B53"/>
			<stop  offset="1" style="stop-color:#091C55"/>
		</linearGradient>
		<polygon style="fill:url(#SVGID_00000144331366064339623090000016895380279718529968_);" points="-1.13,65.3 -1.13,75.18 
			19.72,97.13 		"/>
		<polygon points="129.55,50.45 -1.13,57.06 -1.13,65.3 19.72,97.13 		"/>
		
			<linearGradient id="SVGID_00000144334213844446068410000009923916979311982493_" gradientUnits="userSpaceOnUse" x1="1269.5475" y1="-271.0504" x2="1270.9204" y2="-269.6775" gradientTransform="matrix(99 0 0 34 -125685.0469 9263.9238)">
			<stop  offset="0" style="stop-color:#0D225C"/>
			<stop  offset="1" style="stop-color:#1E2866"/>
		</linearGradient>
		<polygon style="fill:url(#SVGID_00000144334213844446068410000009923916979311982493_);" points="129.55,50.45 -1.13,57.06 
			-1.13,65.3 19.72,97.13 		"/>
		<polygon points="19.72,97.13 206.43,172.64 129.55,50.45 		"/>
		
			<linearGradient id="SVGID_00000080885284130750112100000001431512306801989813_" gradientUnits="userSpaceOnUse" x1="1274.8607" y1="-261.3484" x2="1276.2332" y2="-259.976" gradientTransform="matrix(136 0 0 89 -173352.2812 23303.7852)">
			<stop  offset="0" style="stop-color:#21347A"/>
			<stop  offset="1" style="stop-color:#0D1F61"/>
		</linearGradient>
		<polygon style="fill:url(#SVGID_00000080885284130750112100000001431512306801989813_);" points="19.72,97.13 206.43,172.64 
			129.55,50.45 		"/>
		<polygon points="19.72,97.13 138.53,188.09 203.55,188.09 206.43,172.64 		"/>
		
			<linearGradient id="SVGID_00000023993813073304897970000001818707611809219770_" gradientUnits="userSpaceOnUse" x1="1274.9365" y1="-260.7242" x2="1276.3091" y2="-259.3516" gradientTransform="matrix(136 0 0 98 -173352.2812 25635.2188)">
			<stop  offset="0" style="stop-color:#3D5085"/>
			<stop  offset="1" style="stop-color:#051957"/>
		</linearGradient>
		<polygon style="fill:url(#SVGID_00000023993813073304897970000001818707611809219770_);" points="19.72,97.13 138.53,188.09 
			203.55,188.09 206.43,172.64 		"/>
		<polygon points="424.51,0 317.19,0 454.92,64.18 		"/>
		
			<linearGradient id="SVGID_00000080201010507527558890000007802727504671924412_" gradientUnits="userSpaceOnUse" x1="1271.0974" y1="-262.6309" x2="1272.4706" y2="-261.2578" gradientTransform="matrix(103 0 0 76 -130607.3203 19919.2695)">
			<stop  offset="0" style="stop-color:#00134E"/>
			<stop  offset="1" style="stop-color:#011860"/>
		</linearGradient>
		<polygon style="fill:url(#SVGID_00000080201010507527558890000007802727504671924412_);" points="424.51,0 317.19,0 454.92,64.18 
					"/>
		<polygon points="448.99,0 424.51,0 454.92,64.18 		"/>
		
			<linearGradient id="SVGID_00000071536835994623965420000000324979424208299436_" gradientUnits="userSpaceOnUse" x1="1238.923" y1="-262.7932" x2="1240.2958" y2="-261.4204" gradientTransform="matrix(36 0 0 76 -44189.5859 19919.2695)">
			<stop  offset="0" style="stop-color:#051D6A"/>
			<stop  offset="1" style="stop-color:#021C68"/>
		</linearGradient>
		<polygon style="fill:url(#SVGID_00000071536835994623965420000000324979424208299436_);" points="448.99,0 424.51,0 454.92,64.18 
					"/>
		<polygon points="685.88,110.15 685.88,47.07 622.41,147.93 		"/>
		
			<linearGradient id="SVGID_00000139262272039839837660000001139789758930668969_" gradientUnits="userSpaceOnUse" x1="1267.7881" y1="-259.7343" x2="1269.1562" y2="-258.3662" gradientTransform="matrix(84 0 0 116 -105894.7969 30151.0859)">
			<stop  offset="0" style="stop-color:#071F75"/>
			<stop  offset="1" style="stop-color:#061E74"/>
		</linearGradient>
		<polygon style="fill:url(#SVGID_00000139262272039839837660000001139789758930668969_);" points="685.88,110.15 685.88,47.07 
			622.41,147.93 		"/>
		<polygon points="-1.13,148.84 -1.13,188.09 35.85,188.09 19.72,97.13 		"/>
		
			<linearGradient id="SVGID_00000172437280091817354770000005226276595821734847_" gradientUnits="userSpaceOnUse" x1="1262.6669" y1="-259.1871" x2="1264.0394" y2="-257.8145" gradientTransform="matrix(73 0 0 141 -92204.8125 36611.8359)">
			<stop  offset="0" style="stop-color:#FDBFA0"/>
			<stop  offset="1" style="stop-color:#8A7275"/>
		</linearGradient>
		<polygon style="fill:url(#SVGID_00000172437280091817354770000005226276595821734847_);" points="-1.13,148.84 -1.13,188.09 
			35.85,188.09 19.72,97.13 		"/>
		<polygon points="35.85,188.09 138.53,188.09 19.72,97.13 		"/>
		
			<linearGradient id="SVGID_00000151522811000578918480000009815173866906051724_" gradientUnits="userSpaceOnUse" x1="1273.8586" y1="-258.9105" x2="1275.2299" y2="-257.5393" gradientTransform="matrix(128 0 0 141 -163041.75 36611.8359)">
			<stop  offset="0" style="stop-color:#595587"/>
			<stop  offset="1" style="stop-color:#FCBA8E"/>
		</linearGradient>
		<polygon style="fill:url(#SVGID_00000151522811000578918480000009815173866906051724_);" points="35.85,188.09 138.53,188.09 
			19.72,97.13 		"/>
		<polygon points="585.33,146.56 626.49,0 556.42,0 454.92,64.18 		"/>
		
			<linearGradient id="SVGID_00000075141112996682143910000002770054105049227914_" gradientUnits="userSpaceOnUse" x1="1275.6957" y1="-259.1333" x2="1277.0674" y2="-257.7615" gradientTransform="matrix(136 0 0 146 -173035.2812 37778.1875)">
			<stop  offset="0" style="stop-color:#06216E"/>
			<stop  offset="1" style="stop-color:#0E267A"/>
		</linearGradient>
		<polygon style="fill:url(#SVGID_00000075141112996682143910000002770054105049227914_);" points="585.33,146.56 626.49,0 
			556.42,0 454.92,64.18 		"/>
		<polygon points="622.41,147.93 636.49,0 626.49,0 585.33,146.56 		"/>
		
			<linearGradient id="SVGID_00000013173131287921118780000000149305011814743710_" gradientUnits="userSpaceOnUse" x1="1245.9329" y1="-258.9724" x2="1247.3052" y2="-257.6001" gradientTransform="matrix(41 0 0 147 -50502.668 38033.457)">
			<stop  offset="0" style="stop-color:#09287B"/>
			<stop  offset="1" style="stop-color:#0F2777"/>
		</linearGradient>
		<polygon style="fill:url(#SVGID_00000013173131287921118780000000149305011814743710_);" points="622.41,147.93 636.49,0 
			626.49,0 585.33,146.56 		"/>
		<polygon points="685.88,47.07 685.88,0 636.49,0 622.41,147.93 		"/>
		
			<linearGradient id="SVGID_00000050630589927060630990000016107606039055086984_" gradientUnits="userSpaceOnUse" x1="1264.7175" y1="-258.8795" x2="1266.0914" y2="-257.5056" gradientTransform="matrix(73 0 0 147 -91717.8125 38033.457)">
			<stop  offset="0" style="stop-color:#0A2478"/>
			<stop  offset="1" style="stop-color:#0C2373"/>
		</linearGradient>
		<polygon style="fill:url(#SVGID_00000050630589927060630990000016107606039055086984_);" points="685.88,47.07 685.88,0 636.49,0 
			622.41,147.93 		"/>
		<polygon points="465.61,0 448.99,0 454.92,64.18 		"/>
		
			<linearGradient id="SVGID_00000000208403451168982470000016475350676806606009_" gradientUnits="userSpaceOnUse" x1="1207.1908" y1="-260.9592" x2="1208.5631" y2="-259.5869" gradientTransform="matrix(22 0 0 96 -26116.1484 25004.6777)">
			<stop  offset="0" style="stop-color:#0A2175"/>
			<stop  offset="1" style="stop-color:#041E75"/>
		</linearGradient>
		<polygon style="fill:url(#SVGID_00000000208403451168982470000016475350676806606009_);" points="465.61,0 448.99,0 454.92,64.18 
					"/>
		<polygon points="556.42,0 465.61,0 454.92,64.18 		"/>
		
			<linearGradient id="SVGID_00000169548249555612599710000013751438193724551826_" gradientUnits="userSpaceOnUse" x1="1275.3309" y1="-260.8366" x2="1276.7019" y2="-259.4656" gradientTransform="matrix(136 0 0 96 -173035.2812 25004.6777)">
			<stop  offset="0" style="stop-color:#041E6F"/>
			<stop  offset="1" style="stop-color:#0E267A"/>
		</linearGradient>
		<polygon style="fill:url(#SVGID_00000169548249555612599710000013751438193724551826_);" points="556.42,0 465.61,0 454.92,64.18 
					"/>
		<polygon points="-1.13,0 -1.13,0.88 0,0 		"/>
		
			<linearGradient id="SVGID_00000008834508052070840180000003385663861900234171_" gradientUnits="userSpaceOnUse" x1="1269.8982" y1="-263.3799" x2="1271.1823" y2="-262.0958" gradientTransform="matrix(103 0 0 68 -130894.3203 17848.0527)">
			<stop  offset="0" style="stop-color:#002079"/>
			<stop  offset="1" style="stop-color:#02216A"/>
		</linearGradient>
		<polygon style="fill:url(#SVGID_00000008834508052070840180000003385663861900234171_);" points="-1.13,0 -1.13,0.88 0,0 		"/>
		<polygon points="0,0 -1.13,0.88 -1.13,49.21 30.59,0 		"/>
		
			<linearGradient id="SVGID_00000038393697863735023780000014850664680007104664_" gradientUnits="userSpaceOnUse" x1="1255.002" y1="-262.4504" x2="1256.3715" y2="-261.0809" gradientTransform="matrix(57 0 0 76 -71562.8125 19914.2695)">
			<stop  offset="0" style="stop-color:#061D5B"/>
			<stop  offset="1" style="stop-color:#0A1D59"/>
		</linearGradient>
		<polygon style="fill:url(#SVGID_00000038393697863735023780000014850664680007104664_);" points="0,0 -1.13,0.88 -1.13,49.21 
			30.59,0 		"/>
		<polygon points="94.02,0 30.59,0 -1.13,49.21 -1.13,57.06 129.55,50.45 		"/>
		
			<linearGradient id="SVGID_00000120546842874266036090000008702808123037718154_" gradientUnits="userSpaceOnUse" x1="1269.2542" y1="-262.4154" x2="1270.6271" y2="-261.0424" gradientTransform="matrix(99 0 0 76 -125685.0469 19914.2695)">
			<stop  offset="0" style="stop-color:#0F2262"/>
			<stop  offset="1" style="stop-color:#222F6E"/>
		</linearGradient>
		<polygon style="fill:url(#SVGID_00000120546842874266036090000008702808123037718154_);" points="94.02,0 30.59,0 -1.13,49.21 
			-1.13,57.06 129.55,50.45 		"/>
		<polygon points="112.03,0 94.02,0 129.55,50.45 		"/>
		
			<linearGradient id="SVGID_00000126310274778468880630000003623316221917000107_" gradientUnits="userSpaceOnUse" x1="1250.9908" y1="-263.143" x2="1252.3624" y2="-261.7714" gradientTransform="matrix(50 0 0 72 -62484.0938 18892.1875)">
			<stop  offset="0" style="stop-color:#20306E"/>
			<stop  offset="1" style="stop-color:#243169"/>
		</linearGradient>
		<polygon style="fill:url(#SVGID_00000126310274778468880630000003623316221917000107_);" points="112.03,0 94.02,0 129.55,50.45 
					"/>
	</g>
</g>
</svg>
